<svg xmlns="http://www.w3.org/2000/svg" width="650" height="650"  font-size="42px" class="font-antiqua glass-antiqua"  font-family="Glass Antiqua"  viewBox="0 0 700 600" version="1.1">
<defs>
                  <!-- <style type="text/css">
                    @import
                    url('https://fonts.googleapis.com/css2?family=Glass+Antiqua&display=swap');
                  </style> -->
                </defs>
                <path
              
                  id="circlePath"
                  fill="none"
                  strokeWidth="2"
                  stroke="#121414"
                  
                  
                 
                  d="
                    M 95, 295
                    a 40,40 0 1,1 500,0
                    a 40,40 0 1,1 -500,0
                   "
                />
            
                <text
                  id="text"
                  fontFamily="Glass Antiqua"
                  fontSize="36"
                  fontWeight="bold"
                  fill="black"
                 
                    
                   
                >
                  <textPath id="textPath" href="#circlePath"    className="font-antiqua glass-antiqua" font-family="Glass Antiqua, cursive">
                   ~ Storytime AI ~ Bring your imagination to life ~ The best stories in the world!
                  </textPath>
                </text>

<path d="M 318.500 50.646 C 310.518 51.484, 286.298 56.239, 278 58.597 C 246.005 67.691, 212.794 84.965, 189 104.889 C 137.898 147.679, 107.052 203.011, 100.323 263.962 C 94.615 315.669, 102.675 360.984, 125.499 405.500 C 132.763 419.669, 140.300 431.792, 146.947 440 C 148.951 442.475, 151.335 445.687, 152.245 447.137 C 154.976 451.494, 175.900 472.780, 185 480.461 C 202.925 495.591, 215.142 503.658, 235.502 513.808 C 273.595 532.798, 323.326 541.921, 365 537.563 C 414.566 532.380, 449.229 519.530, 489 491.594 C 493.675 488.311, 497.725 485.368, 498 485.056 C 498.275 484.743, 500.627 482.915, 503.227 480.994 C 510.274 475.786, 534.187 451.078, 540.741 442.232 C 554.639 423.476, 568.829 398.579, 574.502 383 C 582.271 361.661, 587.121 341.840, 588.962 323.906 C 590.310 310.768, 590.362 281.490, 589.062 268.293 C 584.479 221.803, 564.290 173.797, 534.145 137.713 C 517.948 118.323, 491.507 95.373, 473 84.639 C 446.532 69.289, 420.336 59.351, 390.500 53.341 C 378.631 50.951, 375.107 50.701, 350 50.474 C 334.875 50.338, 320.700 50.415, 318.500 50.646 M 329.786 56.948 C 325.543 57.304, 321.774 57.893, 321.410 58.256 C 320.844 58.822, 323.821 61.800, 328.651 65.500 C 329.369 66.050, 330.317 68.267, 330.758 70.426 C 331.631 74.707, 333.488 76.169, 334.414 73.305 C 335.202 70.867, 341.436 66.746, 343.687 67.175 C 347.373 67.878, 346.289 71.443, 341.046 75.864 C 334.268 81.579, 330.670 89.116, 330.240 98.500 C 330.063 102.350, 330.369 106.173, 330.920 106.995 C 332.558 109.442, 334.899 105.271, 334.812 100.060 C 334.718 94.371, 337.587 91.886, 346.271 90.136 C 349.697 89.446, 353.951 88.371, 355.725 87.749 C 359.800 86.318, 360.599 87.112, 358.675 90.681 C 357.839 92.231, 356.605 96.328, 355.933 99.784 C 354.971 104.735, 354.126 106.486, 351.952 108.034 C 348.656 110.381, 346.421 110.492, 341.743 108.537 C 338.573 107.212, 338.097 107.236, 336.699 108.787 C 333.171 112.703, 333.708 114.891, 342.385 131.959 C 346.987 141.011, 351.155 148.552, 351.647 148.716 C 352.139 148.880, 353.105 146.044, 353.793 142.413 C 355.290 134.524, 357.179 130.584, 360.513 128.399 C 365.651 125.033, 367.914 129.512, 363.683 134.673 C 360 139.166, 357.135 148.347, 359.047 149.529 C 359.626 149.887, 361.616 149.461, 363.468 148.582 C 369.692 145.629, 374.968 145.553, 380.160 148.343 C 382.722 149.721, 385.005 150.662, 385.232 150.435 C 385.459 150.207, 385.253 146.979, 384.773 143.261 C 384.293 139.542, 384.155 133.125, 384.466 129 C 384.961 122.433, 384.729 120.857, 382.597 116.326 C 378.613 107.859, 372.640 105.548, 371.355 111.976 C 370.596 115.768, 367.330 116.163, 366.429 112.572 C 365.005 106.899, 369.823 102.618, 377.044 103.139 C 379.173 103.293, 381.225 103.108, 381.604 102.729 C 381.983 102.350, 382.646 97.867, 383.076 92.768 C 383.546 87.202, 384.686 81.566, 385.929 78.665 C 389.488 70.364, 388.537 67.109, 381.703 64.193 C 377.714 62.492, 375.948 62.701, 373.301 65.187 C 371.490 66.888, 370.707 67.107, 369.773 66.173 C 368.840 65.240, 368.839 64.265, 369.769 61.802 C 370.427 60.058, 370.841 58.508, 370.689 58.356 C 370.537 58.204, 365.483 57.612, 359.456 57.041 C 347.786 55.934, 342.101 55.916, 329.786 56.948 M 287.285 62.001 C 283.318 63.041, 279.143 64.388, 278.008 64.996 C 276.005 66.068, 275.996 66.185, 277.703 69.074 C 279.041 71.340, 279.201 72.459, 278.373 73.774 C 276.646 76.516, 274.319 76.406, 273.602 73.550 C 273.236 72.093, 272.248 71, 271.295 71 C 267.961 71, 264.971 75.385, 262.016 84.607 C 259.411 92.740, 259.151 94.614, 259.838 100.315 C 260.266 103.875, 260.239 110.722, 259.778 115.530 C 259.316 120.338, 259.133 124.466, 259.370 124.703 C 259.607 124.940, 262.534 123.056, 265.875 120.515 C 273.318 114.854, 284.100 110.817, 289.455 111.686 C 292.936 112.251, 293.163 112.133, 292.911 109.896 C 292.473 106.006, 294.023 101.058, 296.016 99.992 C 297.035 99.446, 299.473 99, 301.434 99 C 303.917 99, 305 98.550, 305 97.519 C 305 94.893, 300.378 94.639, 295.506 96.997 C 290.915 99.220, 287.987 99.135, 288.015 96.781 C 288.063 92.831, 292.628 90.992, 302.315 91.022 C 308.226 91.041, 310.564 91.569, 315.500 94 C 318.800 95.625, 321.837 96.965, 322.250 96.978 C 322.663 96.990, 323 95.459, 323 93.576 C 323 91.692, 323.945 86.045, 325.101 81.026 C 327.512 70.555, 326.826 66.996, 321.909 64.453 C 318.824 62.857, 311.437 62.484, 310.574 63.881 C 310.274 64.365, 308.873 64.982, 307.458 65.253 C 304.722 65.776, 302 63.868, 302 61.429 C 302 59.435, 296.219 59.660, 287.285 62.001 M 389 61.408 C 389 61.632, 390.182 64.093, 391.626 66.878 C 394.050 71.550, 394.162 72.298, 393.081 76.591 C 392.437 79.150, 392.121 81.454, 392.379 81.712 C 392.636 81.970, 395.872 79.615, 399.569 76.479 C 403.265 73.343, 407.859 70.121, 409.777 69.320 C 411.722 68.507, 412.874 67.492, 412.382 67.022 C 411.897 66.560, 406.714 65.016, 400.864 63.591 C 389.736 60.880, 389 60.745, 389 61.408 M 249.500 75.354 C 245.095 77.150, 241.500 79.218, 241.500 79.957 C 241.500 80.695, 243.193 81.885, 245.262 82.601 C 247.332 83.318, 250.019 84.600, 251.235 85.452 C 254.925 88.036, 255.772 87.296, 257.420 80.053 C 258.289 76.232, 259 72.857, 259 72.553 C 259 71.619, 257.784 71.978, 249.500 75.354 M 411.500 74.861 C 405.037 77.533, 399.790 81.389, 395.239 86.810 C 389.215 93.985, 386.652 100.326, 387.484 106 C 387.846 108.475, 388.463 113.064, 388.853 116.199 C 389.244 119.333, 389.884 122.218, 390.276 122.609 C 391.616 123.950, 394.759 119.911, 395.375 116.055 C 396.047 111.851, 399.088 109.400, 406.581 107.023 C 408.737 106.340, 412.023 104.909, 413.884 103.845 L 417.268 101.909 416.634 105.080 C 416.285 106.823, 416 111.057, 416 114.489 C 416 119.896, 415.649 121.079, 413.364 123.364 C 411.246 125.482, 409.820 125.986, 406.114 125.930 C 403.576 125.891, 400.600 125.505, 399.500 125.072 C 394.453 123.086, 387.991 129.877, 388.008 137.151 C 388.027 145.688, 396.068 163.218, 402.590 168.945 C 408.019 173.711, 408.497 173.211, 408.520 162.750 C 408.536 155.196, 408.953 152.663, 410.794 148.933 C 414.776 140.865, 423.862 132.549, 435.400 126.411 C 439.916 124.009, 444.594 120.996, 445.797 119.716 C 449.303 115.985, 454.143 105.012, 454.711 99.510 C 455.301 93.792, 454.346 92.385, 449.500 91.838 C 445.360 91.371, 444.928 87.898, 448.589 84.505 C 450.088 83.116, 451.130 81.850, 450.907 81.691 C 450.683 81.532, 447.407 79.997, 443.626 78.280 C 436.368 74.983, 434 74.958, 434 78.178 C 434 80.316, 431.799 83, 430.046 83 C 429.443 83, 428.677 81.636, 428.344 79.969 C 427.055 73.524, 419.947 71.368, 411.500 74.861 M 219.168 91.034 L 209.837 97.045 212.918 99.924 C 217.709 104.399, 216.588 108.742, 211.503 105.410 C 209.102 103.837, 208.830 103.844, 206.974 105.523 C 205.692 106.684, 205 108.596, 205 110.981 C 205 115.273, 207.483 118.063, 213.514 120.546 C 215.706 121.450, 219.412 124.194, 221.750 126.645 C 225.773 130.863, 226 131.419, 226 137.040 C 226 140.436, 225.193 145.102, 224.116 147.938 C 223.079 150.666, 222.450 153.117, 222.717 153.384 C 223.289 153.955, 228.134 151.973, 236.500 147.745 C 246.914 142.483, 251.471 136.894, 252.998 127.513 C 254.442 118.641, 251.368 113.801, 247.750 119.250 C 245.531 122.592, 237.399 122.276, 229.608 118.545 L 223.716 115.723 227.108 112.883 C 228.974 111.321, 231.400 109.216, 232.500 108.204 C 237.849 103.283, 245.072 100.433, 248.094 102.050 C 249.105 102.591, 250.415 104.826, 251.005 107.017 C 251.819 110.042, 252.578 111, 254.159 111 C 256.085 111, 256.208 110.551, 255.805 104.987 C 255.312 98.168, 253.576 95.236, 247.079 90.250 C 241.512 85.977, 239.295 86.049, 237.409 90.564 C 236.250 93.338, 235.429 94.059, 233.710 93.814 C 231.809 93.544, 231.512 92.905, 231.586 89.250 C 231.652 85.995, 231.301 85.003, 230.086 85.012 C 229.214 85.018, 224.301 87.728, 219.168 91.034 M 459 88.300 C 459 89.015, 459.507 90.107, 460.126 90.726 C 461.196 91.796, 461.547 97.165, 460.831 101.500 C 460.582 103.001, 460.999 103.440, 462.500 103.258 C 473.341 101.948, 481 100.580, 481 99.955 C 481 98.470, 462.361 87, 459.947 87 C 459.426 87, 459 87.585, 459 88.300 M 343.073 95.798 C 339.040 97.800, 337.912 100, 340.917 100 C 342.256 100, 343 100.643, 343 101.800 C 343 104.113, 344.899 106, 347.225 106 C 349.154 106, 350.788 102.817, 351.719 97.250 C 352.228 94.202, 352.082 94.003, 349.381 94.048 C 347.796 94.074, 344.958 94.862, 343.073 95.798 M 310 103.383 C 310 104.144, 310.832 104.984, 311.848 105.250 C 313.831 105.769, 315.238 110.411, 314.380 113.601 C 314.098 114.646, 312.266 116.625, 310.308 118 C 308.350 119.375, 305.214 122.075, 303.339 124 C 300.267 127.153, 299.829 127.326, 298.915 125.750 C 297.399 123.134, 294 123.486, 294 126.259 C 294 128.894, 290.803 131.246, 288.450 130.342 C 287.263 129.887, 286.996 129.010, 287.465 127.109 C 289.043 120.723, 288.906 120.496, 283.500 120.554 C 276.237 120.633, 271.504 123.359, 262.500 132.650 C 253.903 141.520, 249.572 148.024, 251.773 148.758 C 252.471 148.990, 253.685 150.423, 254.470 151.942 C 256.249 155.383, 254.872 157.124, 250.986 156.347 C 247.003 155.551, 245.697 159.739, 247.839 166.449 C 249.097 170.392, 251.353 173.321, 259.205 181.205 C 264.592 186.616, 269 191.483, 269 192.021 C 269 194.001, 272.077 192.925, 273.150 190.570 C 274.277 188.097, 282.707 180.896, 291.206 175.148 C 296.991 171.235, 299 168.482, 299 164.469 C 299 160.806, 296.886 157.538, 294.938 158.187 C 293.993 158.502, 293.642 159.926, 293.839 162.650 C 294.022 165.189, 293.609 167.080, 292.706 167.829 C 291.500 168.830, 284.013 171.722, 279.062 173.100 C 277.563 173.517, 276.529 170.109, 275.359 160.899 C 274.808 156.564, 274.963 156.162, 278.029 153.980 C 280.891 151.941, 281.750 151.787, 285.165 152.698 C 287.684 153.371, 289.258 153.391, 289.651 152.755 C 291.038 150.511, 282.360 148.136, 278.164 149.611 C 276.770 150.101, 274.475 152.479, 273.062 154.894 C 269.838 160.407, 267.740 161.859, 265.584 160.070 C 261.013 156.276, 267.079 147.724, 275.980 145.415 C 280.428 144.261, 282.479 144.227, 287.313 145.225 C 292.416 146.279, 293.800 147.096, 297.542 151.258 C 299.923 153.906, 302.012 157.033, 302.185 158.208 C 302.712 161.782, 304.831 161.417, 305.542 157.629 C 306.367 153.232, 304.680 147.987, 301.471 144.973 C 298.489 142.171, 298.340 140.423, 300.966 139.018 C 302.566 138.162, 303.502 138.481, 306.002 140.733 C 308.574 143.051, 309.274 144.718, 310.313 151 L 311.553 158.500 317.526 159.024 C 323.790 159.574, 326.947 160.843, 330.845 164.375 C 335.857 168.917, 336.333 171.211, 335.588 187.218 C 335.200 195.544, 335.283 202, 335.776 202 C 336.993 202, 347.462 184.324, 348.927 179.796 C 350.331 175.454, 350.459 164.794, 349.158 160.500 C 346.371 151.303, 332.692 123.674, 326.064 113.855 C 321.086 106.479, 315.777 102, 312.014 102 C 310.906 102, 310 102.623, 310 103.383 M 297.162 105.675 C 296.072 107.623, 298.672 115.660, 300.637 116.414 C 302.260 117.037, 311.217 110.156, 310.727 108.663 C 310.517 108.023, 308.727 107.362, 306.749 107.194 C 304.771 107.026, 302.613 106.238, 301.954 105.444 C 300.356 103.519, 298.314 103.617, 297.162 105.675 M 240.769 107.070 C 239.817 107.624, 237.658 109.338, 235.972 110.878 C 233.254 113.361, 233.084 113.825, 234.472 114.976 C 235.332 115.691, 237.716 116.326, 239.768 116.388 C 243.373 116.496, 243.503 116.381, 243.581 113 C 243.626 111.075, 244.012 108.713, 244.438 107.750 C 245.322 105.755, 243.579 105.432, 240.769 107.070 M 190.359 111.799 C 177.873 122.227, 176.256 124.312, 179.784 125.431 C 182.551 126.310, 184.926 131.089, 183.917 133.750 C 182.819 136.648, 178.406 136.856, 177.516 134.051 C 176.573 131.079, 173.180 130.475, 170.146 132.740 C 164.144 137.222, 164.121 148.610, 170.081 165.545 C 173.075 174.053, 177.631 183, 178.970 183 C 179.410 183, 180.555 181.762, 181.514 180.250 C 187.167 171.339, 192.017 169.354, 198.003 173.502 C 200.137 174.981, 202.304 175.930, 202.818 175.612 C 204.161 174.782, 206.105 166.436, 205.389 164.572 C 204.643 162.629, 203.092 162.616, 200.559 164.532 C 199.491 165.339, 197.169 166, 195.398 166 C 190.898 166, 187.616 161.809, 186.106 154.133 C 185.449 150.795, 184.482 147.798, 183.956 147.473 C 183.430 147.148, 183 145.993, 183 144.906 C 183 143.184, 183.281 143.080, 185.185 144.099 C 186.620 144.867, 190.019 145.064, 195.098 144.672 C 201.992 144.140, 203.120 144.306, 205.536 146.207 C 208.034 148.172, 208.202 148.752, 207.696 153.655 C 207.374 156.781, 207.565 159.231, 208.160 159.599 C 211.123 161.430, 221 146.685, 221 140.430 C 221 133.191, 212.616 128.585, 206.606 132.523 C 204.624 133.821, 204.112 133.840, 203.124 132.649 C 201.571 130.778, 202.572 128.516, 205.555 127.157 C 208.674 125.736, 208.646 124.469, 205.449 122.375 C 202.441 120.404, 199.870 115.855, 199.068 111.082 C 198.751 109.202, 197.981 107.494, 197.355 107.285 C 196.729 107.076, 193.581 109.108, 190.359 111.799 M 462.486 109.128 C 459.586 111.195, 453.580 119.486, 453.527 121.496 C 453.512 122.045, 455.202 122.346, 457.283 122.167 C 459.832 121.947, 462.265 122.549, 464.743 124.011 C 468.017 125.942, 468.828 126.047, 472.122 124.960 C 476.640 123.469, 480.565 124.319, 482.061 127.113 C 482.972 128.815, 482.699 130.128, 480.589 134.194 C 479.117 137.032, 478 140.844, 478 143.033 C 478 147.712, 477.273 148.254, 472.897 146.838 C 464.922 144.257, 462.878 142.951, 461.445 139.522 C 459.563 135.019, 459.622 133.075, 461.710 130.768 C 463.186 129.137, 463.220 128.751, 461.960 127.954 C 460.528 127.048, 455.456 126.572, 451.500 126.972 C 447.760 127.350, 436.515 131.222, 432.500 133.514 C 425.504 137.508, 417.826 146.157, 420.055 147.534 C 420.623 147.885, 421.747 147.625, 422.553 146.956 C 424.506 145.335, 431.601 146.329, 434.078 148.570 C 436.454 150.721, 436.581 154.563, 434.305 155.437 C 433.301 155.822, 431.481 155.253, 429.845 154.044 C 426.523 151.588, 422.800 151.430, 419.482 153.603 C 416.319 155.676, 412.996 161.079, 413.015 164.118 C 413.051 169.782, 419.996 187.955, 423.763 192.240 C 425.181 193.854, 425.606 193.492, 429.627 187.240 C 432.012 183.533, 435.054 178.475, 436.388 176 C 439.393 170.426, 443.057 166.929, 449.399 163.584 C 453.534 161.403, 455.600 161, 462.649 161 C 471.468 161, 472.516 160.333, 469.292 156.770 C 467.996 155.338, 467.841 154.475, 468.649 153.191 C 470.378 150.446, 472.680 150.677, 476.092 153.938 C 479.808 157.489, 479.655 157.460, 484.346 155.500 C 492.054 152.279, 497.202 154.001, 504.450 162.224 C 508.951 167.330, 509.148 167.436, 510.594 165.500 C 512.479 162.975, 516.618 149.062, 517.405 142.604 C 518.284 135.393, 514.635 132.431, 510.500 137 C 508.333 139.395, 506.689 139.535, 504.975 137.470 C 503.079 135.185, 505.041 131.811, 509.627 129.474 C 511.757 128.388, 513.689 127.386, 513.921 127.246 C 515.253 126.442, 496.695 110, 494.455 110 C 493.377 110, 493.130 110.669, 493.566 112.407 C 494.502 116.138, 492.449 119, 488.837 119 C 485.788 119, 485.753 118.943, 486.385 114.993 C 486.983 111.255, 486.807 110.853, 483.763 108.997 C 478.982 106.082, 466.653 106.158, 462.486 109.128 M 404.357 113.091 C 399.774 114.419, 399.329 116.794, 403.029 120.173 C 407.569 124.320, 411 122.058, 411 114.918 C 411 111.730, 410.001 111.456, 404.357 113.091 M 472.327 130.289 C 470.772 131.548, 468.262 133.113, 466.750 133.767 C 465.238 134.422, 464 135.338, 464 135.804 C 464 137.415, 468.511 140.786, 471.514 141.420 C 474.481 142.045, 474.553 141.963, 476.062 136.170 C 478.297 127.591, 477.401 126.180, 472.327 130.289 M 524.528 141.250 C 524.302 141.938, 523.592 145.173, 522.949 148.440 C 522.305 151.708, 521.308 155.135, 520.732 156.058 C 519.503 158.025, 520.506 161.423, 522.037 160.477 C 522.615 160.120, 523.733 160.364, 524.523 161.019 C 526.513 162.671, 524.807 165.581, 521.337 166.451 C 514.996 168.043, 510.228 173.973, 515.250 174.022 C 516.487 174.034, 519.385 174.900, 521.689 175.946 C 525.376 177.620, 526.072 178.484, 527.509 183.174 C 528.407 186.103, 529.397 191.088, 529.710 194.250 C 530.022 197.412, 530.475 200, 530.716 200 C 531.636 200, 536.731 194.309, 539.706 189.957 C 543.122 184.959, 545.364 178.111, 544.403 175.607 C 543.987 174.524, 542.556 174, 540.015 174 C 535.736 174, 533.533 172.046, 534.474 169.083 C 535.144 166.971, 540.689 165.283, 543.460 166.346 C 544.272 166.658, 545.132 166.595, 545.372 166.206 C 546.452 164.455, 528.291 140, 525.911 140 C 525.375 140, 524.753 140.563, 524.528 141.250 M 153.734 150.750 C 143.308 163.901, 128.548 188.881, 130.217 190.550 C 130.590 190.923, 132.095 190.283, 133.563 189.129 C 138.603 185.165, 151.060 182.716, 159.673 183.996 C 162.878 184.473, 166.963 185.175, 168.750 185.556 C 171.790 186.205, 172 186.074, 172 183.529 C 172 182.033, 171.161 179.614, 170.136 178.154 C 169.110 176.694, 167.660 173.784, 166.912 171.687 C 165.067 166.511, 163.589 165.410, 160.423 166.853 C 156.894 168.461, 154.322 168.281, 153.590 166.373 C 152.777 164.255, 154.533 162.222, 158.670 160.493 C 161.619 159.261, 161.999 158.667, 161.989 155.301 C 161.973 149.916, 160.886 144, 159.912 144 C 159.457 144, 156.677 147.037, 153.734 150.750 M 191.832 150.034 C 188.980 151.698, 192.275 161, 195.716 161 C 196.525 161, 197.417 160.121, 197.698 159.047 C 197.979 157.972, 199.287 156.387, 200.604 155.524 C 203.330 153.737, 203.774 150.511, 201.418 149.607 C 199.042 148.695, 193.720 148.932, 191.832 150.034 M 368.500 152.945 C 364.896 154.421, 362.827 157.603, 363.174 161.137 C 363.467 164.109, 363.201 164.502, 360.583 164.974 C 357.867 165.464, 357.569 165.981, 356.261 172.454 C 354.815 179.613, 353.298 183.568, 350.252 188.117 C 345.344 195.449, 340.072 204.928, 338.983 208.381 C 338.257 210.681, 337.938 215.376, 338.200 219.901 C 338.696 228.458, 340.609 233.202, 348.927 246.500 C 351.679 250.900, 354.207 255.738, 354.545 257.250 C 355.230 260.317, 357.087 260.805, 359.055 258.434 C 361.221 255.824, 365.678 254, 369.889 254 L 373.877 254 374.577 249.250 C 374.962 246.637, 376.565 242.074, 378.139 239.109 C 381.153 233.431, 381.855 229, 379.741 229 C 379.048 229, 377.931 229.880, 377.259 230.956 C 376.587 232.032, 374.224 233.401, 372.007 233.998 C 368.628 234.908, 367.284 234.777, 363.688 233.186 C 359.513 231.339, 352 225.496, 352 224.096 C 352 223.712, 353.913 222.386, 356.250 221.148 C 358.587 219.910, 362.750 217.581, 365.500 215.972 C 371.691 212.350, 377.046 212.060, 379.961 215.189 C 381.082 216.392, 382 218.331, 382 219.497 C 382 220.664, 382.666 222.491, 383.481 223.559 C 387.325 228.597, 387.683 217.618, 383.879 211.357 C 382.828 209.628, 380.379 207.001, 378.435 205.518 C 375.478 203.263, 375.106 202.577, 376.154 201.314 C 377.368 199.852, 381.188 199.913, 385.079 201.456 C 386.233 201.914, 387.157 200.978, 388.510 197.979 C 390.725 193.067, 395.258 189, 398.518 189 C 403.280 189, 402.710 192.793, 397.484 195.877 C 391.495 199.410, 390.825 201.431, 390.654 216.471 C 390.516 228.571, 390.679 230.001, 392.191 230 C 393.121 230, 394.091 229.662, 394.347 229.250 C 394.603 228.838, 399.053 226.736, 404.237 224.580 C 409.421 222.424, 415.426 219.178, 417.581 217.366 C 421.412 214.146, 421.498 213.928, 421.412 207.690 C 421.339 202.456, 420.754 200.314, 418.159 195.779 C 412.081 185.155, 397.498 169.334, 394.657 170.281 C 394.071 170.476, 393.244 171.980, 392.818 173.623 C 391.617 178.258, 387.854 181.066, 380.819 182.574 C 373.568 184.130, 366 184.410, 366 183.122 C 366 182.640, 366.650 181.706, 367.444 181.047 C 368.238 180.388, 369.845 176.971, 371.016 173.453 C 373.685 165.433, 377.597 161, 382.007 161 C 384.238 161, 385.812 161.763, 387.186 163.510 C 388.272 164.890, 389.574 165.763, 390.080 165.451 C 391.871 164.344, 390.962 161.297, 388.074 158.723 C 381.666 153.014, 373.920 150.727, 368.500 152.945 M 234 154.704 C 230.526 156.293, 228.181 157.292, 220.514 160.452 C 213.067 163.522, 208.859 169.222, 208.756 176.379 C 208.716 179.206, 209.960 183.169, 212.719 189 C 214.931 193.675, 217.757 200.650, 219 204.500 C 221.674 212.787, 223.005 214.497, 228.862 217.165 C 232.353 218.755, 233.440 218.906, 234.071 217.885 C 235.114 216.197, 234.313 215, 232.141 215 C 229.407 215, 228 212.919, 228 208.876 C 228 205.909, 228.616 204.679, 231.029 202.826 C 232.695 201.547, 236.726 198.363, 239.985 195.750 C 243.245 193.137, 246.157 191, 246.456 191 C 246.755 191, 247 192.505, 247 194.343 C 247 196.182, 247.911 200.335, 249.025 203.572 C 251.007 209.334, 251.010 209.509, 249.179 211.978 C 248.150 213.365, 245.644 214.922, 243.609 215.437 C 240.741 216.164, 239.976 216.815, 240.205 218.335 C 240.367 219.414, 241.175 220.602, 242 220.977 C 242.825 221.352, 245.423 222.655, 247.774 223.873 C 252.078 226.103, 254 226.005, 254 223.555 C 254 222.825, 256.137 219.966, 258.750 217.202 C 262.066 213.695, 264.771 211.840, 267.708 211.061 C 272.323 209.838, 273.662 208.555, 272.254 206.706 C 271.749 206.043, 270.739 203.925, 270.010 202 C 267.271 194.767, 261.928 187.141, 257.584 184.263 C 251.593 180.295, 242.919 178.266, 238.611 179.824 C 234.176 181.427, 232.330 181.302, 231.579 179.345 C 231.189 178.328, 231.822 176.746, 233.222 175.244 C 235.207 173.114, 236.111 172.871, 240.250 173.353 C 245.628 173.979, 245.924 173.457, 243.495 167.641 C 242.666 165.659, 241.649 161.672, 241.232 158.780 C 240.376 152.833, 239.352 152.256, 234 154.704 M 280.317 159.617 C 279.975 160.506, 280.124 162.419, 280.646 163.867 C 281.598 166.507, 282.250 166.653, 287.750 165.453 C 290.495 164.854, 290.712 162.361, 288.092 161.529 C 287.043 161.196, 285.932 160.266, 285.624 159.462 C 284.867 157.490, 281.090 157.601, 280.317 159.617 M 484.775 160.559 C 478.816 163.793, 478.212 170.488, 483.500 174.707 C 487.396 177.816, 488.014 180.543, 485.038 181.488 C 480.677 182.872, 476.350 178.120, 475.392 170.895 L 474.771 166.217 466.515 165.530 C 458.028 164.823, 452.384 165.784, 448.547 168.589 C 445.578 170.760, 447.825 172.305, 451.891 170.888 C 457.300 169.003, 462.548 172.724, 458.750 175.751 C 458.063 176.299, 455.250 177.069, 452.500 177.462 C 447.038 178.242, 441.538 181.126, 439.987 184.024 C 437.770 188.168, 439.588 189.139, 444.636 186.506 C 448.081 184.709, 450.399 184.614, 453.316 186.150 C 456.623 187.891, 456.968 188.893, 456.985 196.816 C 456.993 200.839, 457.451 204.975, 458.003 206.005 C 458.554 207.036, 458.634 208.108, 458.179 208.389 C 457.725 208.670, 453.578 208.519, 448.964 208.054 C 441.335 207.285, 440.323 206.926, 437.788 204.089 C 434.843 200.793, 434.331 198.119, 436.035 194.934 C 436.892 193.334, 436.739 193, 435.150 193 C 432.203 193, 430.099 197.189, 428.496 206.248 C 426.223 219.102, 425.745 218.242, 434.750 217.489 C 441.083 216.959, 443.689 217.218, 449 218.907 C 456.152 221.181, 464.921 221.622, 468.316 219.878 C 472.575 217.689, 476.020 213.562, 477.997 208.278 C 480.691 201.079, 480.579 200.283, 476.320 196.265 C 473.390 193.502, 472.850 192.459, 473.671 191.147 C 474.238 190.241, 476.052 189.364, 477.701 189.198 C 480.076 188.959, 481.305 189.604, 483.601 192.293 C 485.195 194.162, 486.998 196.547, 487.607 197.592 C 488.645 199.375, 488.894 199.282, 491.607 196.097 C 496.768 190.039, 502.974 176.982, 502.988 172.154 C 503.015 162.588, 492.901 156.149, 484.775 160.559 M 314.223 164.557 C 310.374 167.252, 311.955 172, 316.700 172 C 318.433 172, 319 172.567, 319 174.300 C 319 179.695, 314.553 180.398, 308.874 175.901 C 304.474 172.415, 304.222 172.451, 296.171 177.684 C 287.013 183.638, 280.048 189.949, 278.471 193.725 C 275.376 201.130, 277.079 208.598, 283 213.595 C 289.889 219.409, 290.068 219.508, 290.993 218.011 C 291.541 217.124, 290.968 215.513, 289.349 213.391 C 284.109 206.521, 287.490 201.307, 299.646 197.511 C 302.866 196.506, 306.527 195.019, 307.781 194.206 C 309.036 193.394, 310.274 192.940, 310.532 193.199 C 310.790 193.457, 310.593 195.856, 310.093 198.530 C 309.594 201.204, 309.422 205.691, 309.712 208.501 C 310.171 212.944, 309.911 213.992, 307.719 216.541 C 305.649 218.946, 304.463 219.452, 301.099 219.364 C 297.327 219.265, 297 219.463, 297 221.847 C 297 223.833, 299.547 226.899, 307.901 234.969 C 313.897 240.761, 320.991 248.425, 323.666 252 C 328.284 258.171, 335 268.523, 335 269.471 C 335 269.713, 336.125 271.569, 337.500 273.595 C 338.900 275.658, 340 278.711, 340 280.534 C 340 284.416, 343.736 297, 344.888 297 C 345.333 297, 346.509 295.087, 347.502 292.750 C 348.811 289.669, 349.431 285.008, 349.753 275.806 C 350.177 263.714, 350.072 262.837, 347.545 257.306 C 341.581 244.255, 334.379 236.740, 327.695 236.592 C 324.411 236.520, 323.448 236.090, 323.155 234.566 C 322.712 232.268, 325.463 230, 328.691 230 C 331.360 230, 331.514 228.871, 329.935 220.886 C 329.162 216.979, 329.209 210.666, 330.105 197.893 C 331.093 183.803, 331.089 179.390, 330.084 175.800 C 328.603 170.509, 324.626 165.541, 320.685 164.059 C 317.057 162.694, 316.860 162.709, 314.223 164.557 M 379.223 167.750 C 377.304 169.431, 375 174.831, 375 177.649 C 375 179.666, 379.992 179.302, 383.750 177.011 C 387.210 174.901, 387.965 172.584, 385.500 171.638 C 384.675 171.322, 384 169.924, 384 168.531 C 384 165.553, 382.089 165.240, 379.223 167.750 M 190.040 179.766 C 188.510 181.005, 187.636 183.053, 187.277 186.235 C 186.779 190.653, 186.995 191.176, 191.506 196.455 C 196.025 201.745, 207.673 209.942, 212.897 211.509 C 215.197 212.199, 215.272 212.068, 214.763 208.271 C 214.255 204.482, 212.903 201.232, 207.478 190.750 C 204.749 185.478, 204.423 185.315, 201.168 187.595 C 198.525 189.446, 194 188.743, 194 186.481 C 194 185.666, 194.434 185, 194.965 185 C 196.359 185, 197.981 181.581, 197.180 180.331 C 195.812 178.197, 192.320 177.921, 190.040 179.766 M 551 179.540 C 551 182.640, 546.765 189.241, 540.576 195.789 C 527.486 209.637, 523.944 215.142, 529.250 213.393 C 532.790 212.226, 541.345 212.699, 545.106 214.271 C 551.141 216.792, 557.825 217.345, 560.567 215.548 C 563.667 213.517, 563.628 212.444, 560.349 209.623 C 558.236 207.807, 557.834 206.800, 558.368 204.671 C 558.904 202.535, 559.626 202, 561.975 202 L 564.911 202 563.552 198.250 C 562.063 194.140, 555.435 181.242, 553.788 179.250 C 552.373 177.537, 551 177.680, 551 179.540 M 512.200 182.200 C 510.671 183.729, 510.667 186.494, 512.190 188.932 C 513.123 190.427, 513.097 191.179, 512.067 192.419 C 510.594 194.194, 507.441 194.523, 506.500 193 C 505.152 190.819, 502.235 192.227, 498.731 196.750 C 496.707 199.363, 493.235 203.494, 491.016 205.931 C 487.065 210.268, 484.755 215.839, 484.696 221.168 C 484.676 222.959, 486.191 225.531, 489.309 228.998 C 493.559 233.726, 495.980 238.866, 495.994 243.191 C 496.005 246.405, 497.797 245.967, 501.527 241.838 C 506.288 236.568, 516.874 220.287, 517.676 217 C 518.012 215.625, 519.275 212.475, 520.485 210 C 525.817 199.086, 526.130 189.685, 521.351 184.005 C 518.670 180.819, 514.419 179.981, 512.200 182.200 M 145.281 190.435 C 135.255 192.865, 128.338 200.056, 130.809 205.480 C 131.464 206.918, 132 208.748, 132 209.547 C 132 211.509, 128.102 211.402, 125.866 209.379 C 123.246 207.008, 121.712 208.118, 119.639 213.884 C 117.489 219.862, 117.962 222, 121.433 222 C 122.915 222, 124.369 222.822, 125.011 224.021 C 126.237 226.312, 125.571 228, 123.441 228 C 121.307 228, 118 231.694, 118 234.077 C 118 236.878, 123.286 242, 126.177 242 C 127.458 242, 131.880 240.370, 136.003 238.377 C 142.301 235.333, 145.339 232.874, 155 222.998 C 167.055 210.675, 171.756 207.346, 181.250 204.412 C 184.412 203.435, 187 202.103, 187 201.454 C 187 199.852, 182.187 195.148, 178.707 193.349 C 175.420 191.649, 160.342 189.004, 154.500 189.103 C 152.300 189.140, 148.151 189.739, 145.281 190.435 M 448.250 190.718 C 447.563 190.965, 447 191.814, 447 192.605 C 447 193.396, 445.884 194.552, 444.519 195.173 C 441.694 196.460, 440.286 199.686, 441.861 201.261 C 442.445 201.845, 444.852 202.362, 447.211 202.411 L 451.500 202.500 451.797 197.411 C 452.098 192.241, 450.805 189.800, 448.250 190.718 M 236.261 205.355 C 232.576 209.149, 232.941 210.289, 237.564 209.422 C 239.445 209.069, 241.049 209.271, 241.444 209.910 C 242.439 211.519, 244.696 211.234, 245.396 209.410 C 246.185 207.353, 243.028 201.997, 241.034 202.011 C 240.190 202.017, 238.043 203.522, 236.261 205.355 M 297.465 203.929 C 296.346 204.395, 294.829 205.502, 294.093 206.388 C 292.272 208.583, 294.485 211.371, 297.430 210.591 C 298.828 210.222, 300.066 210.767, 301.243 212.272 C 302.736 214.181, 303.131 214.285, 304.004 213 C 304.564 212.175, 304.904 209.700, 304.761 207.500 C 304.535 204.035, 304.165 203.472, 302 203.291 C 300.625 203.177, 298.584 203.464, 297.465 203.929 M 186.355 207.794 C 183.027 208.129, 179.395 211.211, 180.403 212.843 C 180.786 213.462, 182.262 213.426, 184.491 212.741 C 188.804 211.418, 191.936 212.643, 193.973 216.450 C 195.284 218.899, 195.210 219.758, 193.212 225.331 C 191.995 228.724, 191 232.738, 191 234.250 C 191 237.840, 189.213 237.816, 180.102 234.108 C 168.956 229.573, 165.851 224.506, 170.490 218.424 C 171.982 216.469, 172.971 214.637, 172.688 214.354 C 171.652 213.319, 167.319 217.088, 165.189 220.877 C 162.510 225.645, 162.395 230.873, 164.861 235.790 C 167.239 240.530, 166.666 242, 162.442 242 C 159.733 242, 158.758 241.432, 157.592 239.177 C 155.016 234.196, 153.907 233.880, 149.495 236.871 C 147.298 238.361, 142.575 241.325, 139 243.457 C 135.425 245.589, 132.276 247.521, 132.002 247.749 C 131.728 247.976, 132.740 249.064, 134.252 250.165 C 136.500 251.803, 137 252.936, 137 256.392 C 137 261.350, 135.153 264.367, 132.434 263.850 C 130.947 263.568, 130.429 262.502, 130.193 259.241 C 129.921 255.494, 129.600 255, 127.443 255 C 126.099 255, 124.049 255.951, 122.886 257.114 C 121.100 258.900, 120.843 260.092, 121.232 264.779 C 121.630 269.583, 122.172 270.770, 125.266 273.605 C 129.987 277.931, 135.581 279.462, 146.500 279.416 C 156.084 279.375, 164.585 277.330, 168.991 274.007 L 171.477 272.132 168.488 271.064 C 160.732 268.293, 156.478 263.641, 158.607 260.259 C 160.177 257.764, 162.719 257.540, 163.447 259.832 C 163.786 260.902, 165.153 262.952, 166.484 264.389 C 168.543 266.609, 169.749 267, 174.548 267 C 182.205 267, 184.651 265.038, 192.089 252.935 C 200.821 238.725, 213.289 228.524, 224.323 226.562 C 227.507 225.996, 227.947 225.641, 226.951 224.441 C 226.293 223.648, 225.220 223, 224.566 223 C 223.912 223, 217.104 219.846, 209.438 215.990 C 194.431 208.443, 191.220 207.303, 186.355 207.794 M 567.256 218.970 C 563.617 221.955, 556.516 222.357, 548.503 220.031 C 540.265 217.640, 538 217.501, 538 219.389 C 538 220.184, 539.494 221.058, 541.496 221.433 C 545.802 222.241, 549.395 225.250, 552.322 230.500 C 554.219 233.902, 555.147 234.575, 558.526 235 C 561.965 235.433, 562.500 235.837, 562.500 238 C 562.500 240.388, 562.245 240.495, 556.783 240.386 C 551.099 240.273, 551.058 240.293, 549.909 243.777 C 549.272 245.704, 546.446 249.481, 543.627 252.170 L 538.501 257.059 541.751 259.602 C 547.621 264.196, 545.219 269.045, 538.125 266.919 C 534.997 265.982, 533.461 265.981, 531.210 266.913 C 528.256 268.137, 525 273.432, 525 277.014 C 525 280.903, 521.900 286.549, 518.486 288.879 C 516.569 290.187, 515 291.617, 515 292.057 C 515 293.376, 525.095 296.676, 531.250 297.370 C 540.773 298.443, 551.064 293.875, 566.150 281.880 C 573.806 275.793, 576.727 271.033, 575.589 266.498 C 574.865 263.615, 571.673 263.177, 568.559 265.532 C 566 267.467, 561.101 267.426, 560.347 265.463 C 559.655 263.658, 562.373 260.375, 566.198 258.398 C 569.495 256.693, 577.162 256.562, 578.783 258.183 C 579.434 258.834, 580.238 259.096, 580.569 258.764 C 582.326 257.007, 573.674 221.212, 570.816 218.416 C 569.741 217.365, 569.090 217.466, 567.256 218.970 M 182.500 219.502 C 180.850 220.257, 178.262 221.137, 176.750 221.457 C 172.416 222.373, 173.503 224.791, 179.534 227.646 C 182.577 229.087, 185.197 230.094, 185.356 229.883 C 185.515 229.672, 186.433 227.373, 187.396 224.774 C 189.884 218.058, 188.621 216.699, 182.500 219.502 M 266.305 219.499 C 265.127 220.324, 263.172 222.604, 261.959 224.566 C 259.286 228.891, 259.681 234.339, 263.006 239.009 C 265.520 242.538, 269.251 242.807, 269.830 239.500 C 270.304 236.789, 273.932 234.049, 277.084 234.022 C 278.509 234.010, 282.230 235.794, 285.379 238 C 288.519 240.200, 291.490 242, 291.979 242 C 292.469 242, 294.137 242.486, 295.685 243.080 L 298.500 244.161 295.500 246.644 C 288.310 252.594, 281.453 256.389, 277.830 256.421 C 273.464 256.461, 270 253.742, 270 250.275 C 270 248.351, 269.549 247.926, 267.778 248.180 C 266.201 248.407, 265.258 249.544, 264.528 252.094 C 263.963 254.071, 262.289 257.269, 260.809 259.200 C 255.696 265.872, 253.712 270.751, 254.233 275.371 C 254.872 281.048, 260.694 290.011, 266.173 293.754 C 272.674 298.196, 277.384 299.369, 289 299.438 L 299.500 299.500 299.158 293.826 C 298.706 286.313, 299.391 284.557, 303.781 281.967 L 307.473 279.789 304.565 277.470 C 300.859 274.515, 293.895 272.705, 290.812 273.895 C 289.540 274.386, 287.409 275.961, 286.076 277.394 C 284.742 278.827, 282.605 280, 281.326 280 C 279.337 280, 279 279.496, 279 276.517 C 279 273.345, 279.443 272.809, 283.967 270.517 C 289.735 267.594, 295.967 267.253, 301.486 269.559 C 303.538 270.416, 305.301 270.978, 305.406 270.809 C 305.510 270.639, 306.116 269.286, 306.752 267.803 C 307.388 266.319, 309.109 264.319, 310.576 263.358 C 313.125 261.688, 313.302 261.692, 314.582 263.443 C 315.708 264.983, 315.689 265.606, 314.461 267.360 C 312.429 270.260, 312.638 274.270, 314.974 277.240 C 317.060 279.892, 332.754 288.580, 333.717 287.616 C 334.581 286.752, 329.182 271.078, 326.271 266 C 319.616 254.391, 300.668 233.981, 289.666 226.570 L 283.832 222.641 281.343 225.820 C 279.578 228.076, 278.021 229, 275.987 229 C 271.910 229, 271.316 227.190, 274.439 224.293 C 277.002 221.917, 277.048 221.710, 275.409 219.900 C 273.346 217.620, 269.245 217.439, 266.305 219.499 M 368.500 219.391 C 367.400 220.098, 365.277 221.425, 363.782 222.340 C 360.614 224.280, 360.935 225.940, 364.936 228.303 C 369.195 230.819, 371.859 230.476, 373.106 227.250 C 373.690 225.738, 374.765 223.297, 375.494 221.826 C 376.223 220.356, 376.560 218.893, 376.243 218.576 C 375.235 217.568, 370.573 218.058, 368.500 219.391 M 474.188 221.528 C 472.367 222.823, 468.317 224.387, 465.188 225.001 C 457.006 226.608, 457.045 226.582, 457.185 230.300 C 457.339 234.408, 456.470 236, 454.070 236 C 452.648 236, 452.114 234.913, 451.589 230.961 C 450.302 221.260, 442.834 219.821, 421.212 225.108 C 414.220 226.818, 406.051 229.133, 403.058 230.252 C 392.840 234.074, 381.649 242.504, 379.946 247.664 C 378.954 250.670, 379.390 258.080, 380.688 260.271 C 380.939 260.696, 383.183 259.248, 385.675 257.055 C 390.051 253.203, 399.073 249, 402.966 249 C 404.960 249, 408 251.477, 408 253.103 C 408 254.209, 407.564 254.351, 399.561 255.857 C 389.512 257.747, 383.494 265.456, 381.873 278.519 C 381.386 282.436, 379.448 290.215, 377.565 295.806 C 375.683 301.396, 374.550 306.222, 375.048 306.530 C 375.546 306.838, 377.765 306.602, 379.978 306.006 C 382.191 305.410, 388.726 304.507, 394.500 304 C 406.941 302.907, 411.812 301.722, 415.369 298.924 C 418.270 296.642, 418.891 292.556, 416.477 291.630 C 414.931 291.036, 411 294.172, 411 296 C 411 296.550, 409.875 297, 408.500 297 C 404.617 297, 405.023 292.098, 409.159 289.041 C 412.146 286.832, 412.217 286.632, 410.468 285.353 C 409.450 284.609, 407.316 284, 405.726 284 C 402.332 284, 402.187 284.488, 408.370 275.141 C 412.270 269.245, 414.134 267.386, 417.745 265.788 C 423.213 263.370, 426.546 264.399, 428.151 269.003 C 428.725 270.651, 429.510 272, 429.895 272 C 431.167 272, 437.750 264.558, 439.431 261.221 C 441.159 257.789, 440.969 256.908, 437.725 253.301 C 433.462 248.561, 439.572 245.786, 443.967 250.465 C 446.032 252.663, 446.211 253.546, 445.619 258.585 L 444.954 264.239 452.727 263.587 C 469.455 262.184, 471.419 261.063, 466.005 256.004 C 461.393 251.696, 461.925 248.610, 468.500 241.545 C 471.525 238.295, 474 235.267, 474 234.818 C 474 234.368, 474.675 234, 475.500 234 C 476.325 234, 477 234.855, 477 235.900 C 477 236.944, 478.575 240.139, 480.500 243 C 482.425 245.861, 484 248.635, 484 249.166 C 484 251.269, 481.792 254.056, 478.970 255.515 C 475.792 257.159, 475.026 259, 477.520 259 C 479.821 259, 486.738 254.329, 488.565 251.542 C 491.386 247.236, 491.526 241.707, 488.929 237.088 C 487.660 234.830, 485.669 232.358, 484.505 231.595 C 482.710 230.419, 481.527 227.783, 479.413 220.250 C 478.938 218.555, 478.066 218.768, 474.188 221.528 M 523.065 222.265 C 520.727 223.450, 517.519 227.949, 512.913 236.500 C 511.728 238.700, 509.238 242.376, 507.379 244.668 C 503.339 249.652, 503.200 250.761, 506.511 251.592 C 511.716 252.899, 514.830 261.027, 511.429 264.429 C 508.499 267.358, 506 265.813, 506 261.073 C 506 258.481, 502.763 255.997, 499.421 256.024 C 497.815 256.037, 493.800 257.185, 490.500 258.576 C 487.200 259.967, 481.350 262.280, 477.500 263.716 C 469.085 266.854, 469.430 266.608, 470.922 268.407 C 472.544 270.361, 472.605 275.566, 471.029 277.465 C 470.328 278.309, 468.875 279, 467.799 279 C 466.148 279, 465.895 278.417, 466.172 275.250 C 466.471 271.832, 466.190 271.345, 463 269.752 C 457.801 267.154, 447.623 267.395, 441.962 270.250 C 438.080 272.208, 437.468 272.955, 437.250 276 C 436.971 279.915, 440.530 284.671, 445.766 287.379 C 447.363 288.205, 452.085 292.070, 456.260 295.969 L 463.850 303.058 468.175 298.983 C 477.074 290.599, 484.657 288.116, 501.625 288.031 C 513.932 287.969, 515.908 286.612, 518.570 276.394 C 520.163 270.276, 521.976 266.991, 526.378 262.248 C 529.486 258.899, 529.264 257.512, 525.511 256.836 C 522.883 256.362, 522.313 252.975, 524.582 251.316 C 525.572 250.592, 528.794 250, 531.741 250 C 539.639 250, 542.304 248.208, 544.956 241.118 C 548.244 232.325, 546.526 227.161, 539.750 225.470 C 536.529 224.666, 536.094 226.120, 538.955 228.128 C 542.505 230.620, 542.524 234.334, 539.008 238.339 C 535.650 242.162, 529.249 246.582, 528.358 245.691 C 526.243 243.576, 521 234.181, 521 232.506 C 521 229.293, 523.828 226, 526.588 226 C 529.420 226, 530.982 223.235, 528.896 221.914 C 527.031 220.733, 525.957 220.798, 523.065 222.265 M 224.043 232.552 C 221.041 233.384, 217.726 234.838, 216.675 235.783 C 210.614 241.230, 214.368 247.817, 221.583 244.394 C 227.596 241.540, 230.433 244.941, 225.365 248.927 C 222.420 251.244, 216.210 251.700, 212.684 249.859 C 211.483 249.232, 209.323 247.333, 207.885 245.639 L 205.269 242.560 202.049 247.128 C 198.039 252.818, 192.043 265.742, 192.018 268.750 C 191.993 271.849, 195.425 275, 198.826 275 C 202.508 275, 205.762 271.458, 206.175 267 C 206.430 264.258, 206.985 263.431, 208.740 263.182 C 212.199 262.690, 213.643 266.790, 212.307 273.306 C 211.651 276.504, 211.587 279.408, 212.139 280.863 C 213.162 283.557, 214.016 283.491, 223.500 279.991 C 228.562 278.123, 230.886 277.854, 238.366 278.270 L 247.231 278.762 246.696 274.772 C 245.931 269.069, 248.097 262.975, 253.393 255.930 C 258.828 248.700, 259.147 245.861, 255.136 240.400 C 249.174 232.284, 247.764 231.525, 238.171 231.269 C 232.805 231.127, 227.420 231.616, 224.043 232.552 M 527 232.554 C 527 235.247, 528.984 238, 530.924 238 C 533.560 238, 537.758 234.385, 536.500 233.199 C 535.950 232.680, 533.587 231.968, 531.250 231.616 C 527.776 231.093, 527 231.264, 527 232.554 M 275.247 240.153 C 274.459 240.941, 274.404 241.886, 275.071 243.133 C 275.609 244.137, 275.773 246.056, 275.436 247.397 C 274.286 251.981, 279.371 252.622, 285.250 248.635 C 289.055 246.055, 288.709 244.606, 283.572 241.595 C 278.680 238.728, 276.968 238.432, 275.247 240.153 M 112.498 241.003 C 110.283 244.587, 104.941 287, 106.705 287 C 107.192 287, 109.895 284.863, 112.713 282.250 L 117.836 277.500 115.767 271.215 C 113.915 265.590, 113.828 264.349, 114.936 259.395 C 115.802 255.526, 117.052 253.078, 119.087 251.265 C 120.689 249.837, 121.992 248.181, 121.982 247.585 C 121.965 246.567, 114.731 240, 113.626 240 C 113.347 240, 112.839 240.451, 112.498 241.003 M 471.207 244.479 C 469.239 246.135, 468 248.104, 468 249.576 C 468 251.842, 468.290 251.958, 473.250 251.666 C 477.664 251.407, 478.548 251.030, 478.804 249.298 C 478.971 248.164, 478.052 246.009, 476.761 244.509 L 474.414 241.780 471.207 244.479 M 363.143 262.533 C 359.071 265.960, 357.348 271.959, 355.898 287.754 C 354.645 301.409, 355.241 306, 358.266 306 C 358.986 306, 361.669 303.863, 364.228 301.250 C 368.716 296.669, 369.317 295.473, 375.656 278.532 C 377.341 274.028, 376.687 268, 374.514 268 C 373.746 268, 372.840 268.450, 372.500 269 C 371.674 270.337, 367.290 270.279, 366.451 268.920 C 366.084 268.326, 366.732 267.176, 367.892 266.363 C 370.520 264.522, 370.593 262.388, 368.072 261.039 C 366.539 260.218, 365.532 260.523, 363.143 262.533 M 418.500 271.173 C 416.082 272.291, 411.885 278.006, 412.615 279.186 C 413.167 280.079, 419.655 283, 421.087 283 C 421.550 283, 422.431 282.063, 423.045 280.917 C 423.929 279.264, 423.814 278.452, 422.490 276.988 C 421.473 275.865, 421.066 274.366, 421.451 273.156 C 422.231 270.698, 421.129 269.957, 418.500 271.173 M 179.890 274.298 C 175.402 277.340, 169.371 280.571, 164.750 282.407 C 159.201 284.613, 159.843 286.663, 166.056 286.573 C 170.321 286.511, 171.410 286.891, 173.018 289 C 176.370 293.396, 176.380 296.300, 173.065 303.852 C 171.379 307.693, 170 312.222, 170 313.918 C 170 318.262, 168.011 317.733, 164.702 312.509 C 162.861 309.604, 160.326 307.306, 157.295 305.796 C 147.089 300.712, 144.301 295.058, 150 291 C 153.310 288.643, 154.070 284.998, 151.250 285.004 C 150.287 285.006, 148.037 285.899, 146.250 286.989 C 143.557 288.631, 143 289.585, 143 292.551 C 143 298.880, 139.498 302.098, 136.200 298.800 C 134.500 297.100, 134.712 290.857, 136.558 288.220 C 138.034 286.113, 137.977 285.942, 135.478 284.992 C 134.026 284.440, 130.882 283.495, 128.490 282.893 C 124.514 281.892, 123.700 282.038, 118.992 284.601 C 111.203 288.840, 108.687 295.254, 113.561 298.448 C 117.421 300.977, 116.501 304.160, 111.500 305.579 L 107.500 306.713 107.652 315.107 C 107.952 331.690, 114.062 356.727, 123.732 381 C 126.943 389.060, 137.101 409.787, 139.728 413.641 C 140.800 415.214, 144.078 420.100, 147.012 424.500 C 158.771 442.134, 176.794 462.138, 193 475.541 C 199.126 480.608, 215.445 492.114, 221.220 495.438 C 226.481 498.466, 227.490 498.298, 228.298 494.261 C 229.060 490.448, 237.851 477.159, 246 467.500 C 249.712 463.100, 254.116 456.780, 255.785 453.456 C 260.755 443.560, 263.303 441.715, 291.092 427.893 C 296.088 425.407, 309.860 415.073, 314.414 410.392 C 322.312 402.273, 328 388.148, 330.477 370.502 C 333.132 351.587, 331.715 328.688, 327.306 319.247 C 323.373 310.828, 312.713 305, 301.245 305 C 296.611 305, 295.432 305.414, 292.923 307.923 C 290.246 310.600, 289.461 312.991, 289.943 317 C 290.043 317.825, 291.450 319.625, 293.071 321 C 296.703 324.081, 296.868 326.744, 293.479 327.595 C 291.681 328.046, 290.370 329.595, 288.906 332.996 C 286.289 339.081, 282.272 342.919, 277.754 343.652 C 274.695 344.149, 273.957 343.864, 272.483 341.615 C 270.888 339.179, 270.883 338.827, 272.418 336.486 C 273.803 334.370, 274.728 334.013, 278.241 334.236 C 281.999 334.474, 282.563 334.201, 283.875 331.516 C 285.208 328.788, 285.325 326.289, 284.706 313.750 C 284.618 311.962, 284.899 309.502, 285.330 308.283 C 285.996 306.400, 285.692 305.972, 283.307 305.434 C 275.250 303.619, 264.059 298.572, 254.419 292.405 C 246.628 287.421, 241.628 285.861, 232.827 285.668 C 224.591 285.488, 221.832 286.666, 217.780 292.093 C 215.256 295.474, 214.961 300.310, 217.250 300.784 C 218.541 301.052, 219 300.501, 219 298.684 C 219 297.330, 219.864 295.159, 220.921 293.861 C 222.731 291.637, 223.434 291.509, 233.057 291.661 C 239.758 291.766, 243.526 292.234, 244.012 293.020 C 245.102 294.784, 238.251 310.144, 235.248 312.670 C 232.100 315.317, 226.719 316.455, 224.065 315.035 C 222.985 314.457, 221.516 312.763, 220.801 311.271 C 219.478 308.512, 215.271 305.715, 213.806 306.620 C 213.363 306.894, 213.002 309.004, 213.004 311.309 C 213.011 319.870, 220.903 327.233, 230.280 327.427 C 234.561 327.516, 235.545 327.873, 235.848 329.451 C 236.726 334.009, 228.734 335.436, 221.889 331.943 C 216.355 329.120, 209.200 321.400, 207.807 316.749 C 206.970 313.957, 206.931 310.640, 207.664 304.699 C 208.220 300.189, 208.537 296.327, 208.369 296.115 C 207.535 295.066, 202.787 299.508, 200.415 303.555 C 198.006 307.666, 197.802 308.759, 198.382 314.428 C 198.885 319.337, 198.704 321.001, 197.562 321.948 C 194.182 324.754, 189 319.486, 189 313.246 C 189 307.176, 197.417 295.079, 205.421 289.646 L 208.153 287.791 205.977 285.476 C 204.493 283.896, 202.166 282.957, 198.651 282.519 C 191.746 281.658, 187.342 279.240, 185.461 275.277 C 184.606 273.475, 183.765 272, 183.593 272 C 183.420 272, 181.754 273.034, 179.890 274.298 M 574.810 282.327 C 569.359 288.350, 559.795 294.970, 551.589 298.398 C 549.441 299.296, 548.001 300.515, 548.236 301.236 C 549.163 304.076, 567.604 306.049, 572.477 303.829 C 575.525 302.440, 576.626 299.039, 575.008 296.015 C 572.956 292.182, 574.430 290.687, 579.512 291.449 L 584 292.123 583.986 286.311 C 583.970 279.414, 583.188 275.993, 581.633 276.019 C 581.010 276.030, 577.939 278.868, 574.810 282.327 M 428.953 281.641 C 428.359 283.214, 426.721 285.708, 425.313 287.183 C 423.298 289.296, 422.860 290.573, 423.255 293.183 C 423.761 296.533, 422.168 300.893, 419.203 304.274 C 417.104 306.667, 418.126 307.391, 427 309.801 C 449.415 315.887, 457 315.368, 457 307.748 C 457 304.318, 453.608 300.443, 444.493 293.462 C 440.363 290.299, 436.082 286.251, 434.980 284.468 C 431.589 278.980, 430.204 278.331, 428.953 281.641 M 306.163 286.598 C 303.447 288.501, 303.400 291.147, 306.041 293.537 C 307.974 295.286, 308.232 295.294, 310.945 293.692 C 314.125 291.813, 317.563 291.484, 318.482 292.971 C 318.812 293.504, 318.388 295.282, 317.541 296.921 C 316.693 298.560, 316 300.127, 316 300.404 C 316 300.680, 317.913 301.765, 320.250 302.814 C 324.169 304.573, 326.579 306.581, 331.286 312.012 C 334.178 315.348, 335.300 313.439, 334.773 306.077 C 334.132 297.113, 331.393 292.992, 323.500 289.115 C 316.088 285.474, 309.197 284.474, 306.163 286.598 M 163.826 292.922 C 162.482 293.980, 159.833 294.992, 157.941 295.172 C 154.518 295.498, 153.641 296.952, 156.173 298.104 C 156.903 298.436, 159.163 299.506, 161.195 300.482 C 163.228 301.457, 165.500 302.022, 166.244 301.737 C 168.264 300.961, 170.198 293.944, 168.842 292.310 C 167.396 290.567, 166.714 290.650, 163.826 292.922 M 487 294.928 C 483.975 295.276, 480.597 296.068, 479.492 296.686 C 476.624 298.293, 466.847 308.745, 463.566 313.713 C 459.720 319.536, 454.108 322.155, 447.226 321.340 C 441.150 320.621, 440.421 321.847, 444.750 325.503 C 459.042 337.574, 463.171 339.877, 470.668 339.956 C 475.797 340.010, 478 340.796, 478 342.572 C 478 344.502, 474.734 346, 470.526 346 C 466.783 346, 462.357 344.085, 454.318 338.987 C 447.798 334.852, 446.906 335.034, 447.635 340.350 C 448.321 345.358, 446.821 349, 444.072 349 C 442.122 349, 440.586 346.479, 441.568 344.890 C 441.884 344.378, 442.143 341.477, 442.143 338.443 C 442.143 330.755, 438.998 324.589, 433.201 320.913 C 428.885 318.175, 419.967 315, 416.596 315 C 414.041 315, 414.748 317.437, 418 319.842 C 420.361 321.588, 421 322.822, 421 325.639 C 421 328.532, 419.899 330.534, 415.250 336.090 C 412.087 339.870, 408.997 342.971, 408.382 342.981 C 407.767 342.992, 407.012 341.126, 406.705 338.837 C 406.398 336.547, 405.201 333.509, 404.046 332.087 C 402.890 330.664, 401.258 327.995, 400.419 326.155 C 399.042 323.134, 399.049 322.574, 400.499 320.361 C 401.382 319.013, 403.206 317.492, 404.552 316.980 C 411.184 314.459, 402.901 310.551, 392.361 311.227 C 380.771 311.971, 371.674 318.159, 367.800 327.934 C 365.823 332.923, 365.554 335.724, 365.209 354.942 C 364.511 393.765, 366.676 401.919, 382 418.164 C 408.996 446.783, 422.543 459.729, 430.500 464.512 C 434.900 467.156, 440.051 470.662, 441.946 472.302 C 443.842 473.942, 447.667 476.301, 450.446 477.544 C 458.373 481.088, 465 489.477, 465 495.968 C 465 497.086, 465.255 498, 465.566 498 C 467.296 498, 480.781 489.327, 489.500 482.606 C 530.170 451.255, 559.359 409.618, 573.934 362.168 C 579.562 343.846, 579.564 342, 573.955 342 C 572.500 342, 570.549 341.159, 569.619 340.132 C 568.390 338.773, 566.051 338.129, 561.046 337.771 C 553.902 337.260, 553.640 337.108, 547.760 330.080 C 546.615 328.711, 544.839 328, 542.569 328 C 538.167 328, 537.225 326.454, 539.895 323.612 C 543.462 319.815, 541.991 314.336, 536.023 309.185 C 534.298 307.696, 518.432 300, 517.087 300 C 515.742 300, 515.252 308.152, 516.411 311.252 C 517.273 313.558, 517.095 314.349, 515.312 316.133 C 513.372 318.072, 512.185 318.248, 501.908 318.114 C 495.707 318.033, 490.402 317.735, 490.119 317.452 C 489.567 316.900, 494.452 307.404, 497.102 303.874 C 498.328 302.242, 499.971 301.673, 504.102 301.453 C 510.271 301.125, 511.904 298.964, 507.296 297.226 C 498.253 293.815, 497.446 293.724, 487 294.928 M 225.667 297.667 C 224.597 298.736, 224.899 302, 226.067 302 C 226.706 302, 227.008 303.706, 226.817 306.250 C 226.526 310.158, 226.693 310.500, 228.901 310.500 C 230.648 310.500, 232.216 309.174, 234.651 305.641 C 239.680 298.344, 239.293 297, 232.167 297 C 228.958 297, 226.033 297.300, 225.667 297.667 M 501.046 307.669 C 498.341 311.107, 498.808 312.261, 503.339 313.333 C 509.274 314.737, 510.227 313.845, 507.913 309.056 C 505.625 304.321, 503.946 303.982, 501.046 307.669 M 574 310.212 C 569.155 311.926, 567.631 312.030, 561.209 311.079 C 552.990 309.863, 546 309.671, 546 310.662 C 546 311.026, 546.768 313.759, 547.706 316.735 C 549.908 323.720, 557.660 332, 561.999 332 C 565.045 332, 568 328.977, 568 325.861 C 568 323.754, 569.940 322.982, 572.250 324.170 C 573.479 324.802, 574 326.272, 574 329.105 C 574 332.665, 574.253 333.102, 576.150 332.820 C 580.321 332.199, 582.094 328.108, 582.717 317.668 C 583.380 306.549, 583.665 306.793, 574 310.212 M 405 324.034 C 405 326.632, 408.635 332, 410.394 332 C 412.152 332, 416 327.706, 416 325.745 C 416 323.660, 415.483 323.397, 409.750 322.566 C 405.339 321.927, 405 322.031, 405 324.034 M 328.281 427.157 C 325.862 428.653, 323.645 432.006, 319.368 440.638 C 312.783 453.923, 309.062 457.803, 296.500 464.480 C 290.767 467.527, 287.650 469.930, 285.500 472.959 L 282.500 477.185 282.798 490.898 C 283.056 502.800, 282.832 505.226, 281.101 509.265 C 280.003 511.825, 278.814 515.473, 278.458 517.373 C 277.661 521.621, 278.492 522.156, 289.357 524.387 C 299.607 526.491, 302.309 526.422, 304.504 523.996 C 306.775 521.486, 305.801 518.998, 299.727 511.785 C 295.771 507.089, 295.511 506.405, 295.671 501.133 C 295.969 491.275, 301.643 481.006, 312.299 471.039 C 318.451 465.285, 319.756 463.314, 326.007 450.346 C 334.361 433.015, 335.817 428.690, 334.026 426.532 C 332.471 424.657, 332.290 424.677, 328.281 427.157 M 351.465 425.961 C 347.888 427.394, 343.299 434.542, 334.490 452.399 C 327.560 466.448, 326.820 471.685, 329.908 484.836 C 333.206 498.885, 333.687 508.764, 331.437 516.277 C 330.412 519.699, 329.030 523.568, 328.366 524.874 C 326.476 528.590, 327.656 530, 332.657 530 C 338.377 530, 341.971 528.087, 346.142 522.822 C 353.018 514.144, 353.598 510.540, 348.902 505.696 C 345.363 502.045, 341.145 493.671, 340.337 488.689 C 339.532 483.730, 343.683 475.788, 355.068 460.500 C 365.078 447.059, 367.022 443.237, 366.968 437.101 C 366.910 430.402, 357.412 423.578, 351.465 425.961 M 308.438 430.375 C 305.172 432.781, 299.739 436.268, 296.366 438.125 C 287.704 442.891, 279.776 452.096, 278.016 459.433 C 277.280 462.501, 276.946 465.279, 277.273 465.607 C 277.601 465.934, 279.361 465.085, 281.184 463.720 C 283.008 462.354, 288.100 459.334, 292.500 457.008 C 303.453 451.217, 307.334 447.223, 312.582 436.339 C 315.012 431.300, 317 426.912, 317 426.589 C 317 425.005, 313.813 426.414, 308.438 430.375 M 381.013 436.750 C 381.020 437.163, 381.943 440.425, 383.063 444 C 384.389 448.230, 385.280 454.516, 385.616 462 C 386.417 479.845, 388.179 485.653, 396.844 499 C 402.532 507.761, 405.317 513.246, 405.930 516.891 C 406.244 518.756, 407.322 520.781, 408.327 521.391 C 409.856 522.319, 410.619 521.949, 413.011 519.116 C 419.224 511.761, 417.906 503.461, 408.981 493.721 C 401.210 485.240, 399.945 482.107, 400.092 471.702 C 400.183 465.175, 399.664 461.834, 397.661 456.075 C 395.172 448.919, 394.202 447.434, 387.004 439.767 C 383.782 436.334, 380.981 434.924, 381.013 436.750 M 265.873 450.302 C 264.978 450.984, 262.552 455.244, 260.483 459.771 C 258.414 464.297, 256.400 468, 256.006 468 C 255.612 468, 253.453 470.587, 251.208 473.750 C 248.963 476.913, 245.082 481.666, 242.583 484.312 C 239.565 487.509, 237.530 490.843, 236.520 494.244 C 234.042 502.590, 234.098 502.698, 243.250 507.004 C 247.787 509.139, 251.869 510.520, 252.321 510.072 C 252.772 509.625, 251.680 507.185, 249.893 504.651 C 247.130 500.731, 246.667 499.243, 246.787 494.682 C 246.986 487.108, 247.953 485.225, 255.372 477.973 C 258.987 474.439, 262.451 470.187, 263.071 468.524 C 263.690 466.861, 265.502 462.539, 267.098 458.920 C 268.694 455.301, 270 451.589, 270 450.670 C 270 448.713, 268.175 448.550, 265.873 450.302 M 370.762 452.750 C 369.036 456.723, 365.098 461.836, 360.449 466.139 C 358.221 468.201, 354.958 472.753, 353.199 476.254 C 350.578 481.468, 350 483.799, 350 489.139 C 350 495.056, 350.347 496.153, 353.750 501.004 C 355.813 503.944, 357.988 506.508, 358.583 506.703 C 359.179 506.897, 360.238 505.131, 360.936 502.778 C 361.634 500.425, 364.588 493.325, 367.499 487 C 374.201 472.441, 374.988 469.478, 374.994 458.750 C 374.999 451.582, 374.725 450, 373.479 450 C 372.642 450, 371.420 451.238, 370.762 452.750 M 407 458.533 C 407 461.169, 411.676 469.317, 415.673 473.645 C 417.778 475.925, 422.650 480.151, 426.500 483.037 C 430.350 485.923, 435.413 490.357, 437.752 492.892 C 441.252 496.686, 442.177 497.235, 442.986 496 C 444.437 493.787, 444.229 491.686, 441.957 485.615 C 439.430 478.860, 435.104 474.825, 424.458 469.294 C 417.097 465.469, 413.720 462.933, 410.211 458.594 C 408.576 456.573, 407 456.543, 407 458.533 M 268.312 471.635 C 267.315 473.107, 264.818 476.154, 262.763 478.406 C 254.478 487.481, 252.995 489.760, 252.361 494.386 C 251.831 498.249, 251.995 499, 253.364 499 C 254.264 499, 255 498.596, 255 498.101 C 255 497.607, 258.084 493.895, 261.853 489.851 C 269.503 481.645, 272 477.526, 272 473.109 C 272 469.024, 270.489 468.421, 268.312 471.635 M 311.505 482.201 C 301.507 493.152, 300.680 498.482, 307 511.242 C 309.804 516.903, 311 520.609, 311 523.640 C 311 527.349, 311.335 528.046, 313.362 528.555 C 314.661 528.881, 317.248 529.002, 319.112 528.824 C 322.246 528.524, 322.637 528.088, 324.335 523 C 327.705 512.901, 327.565 505.154, 323.739 490 C 321.353 480.549, 319.869 476.410, 318.793 476.201 C 317.938 476.035, 314.704 478.698, 311.505 482.201 M 407.465 478.057 C 406.157 480.173, 408.078 483.790, 414.112 490.573 C 422.193 499.656, 425.366 506.379, 424.451 512.480 C 423.667 517.706, 423.859 517.779, 430.805 514.892 C 435.523 512.931, 441 507.282, 441 504.376 C 441 501.876, 432.788 494.181, 424.045 488.491 C 418.795 485.073, 413.409 481.090, 412.076 479.639 C 409.438 476.767, 408.467 476.435, 407.465 478.057 M 267.720 490.392 C 260.290 498.331, 258.603 500.991, 258.706 504.605 C 258.822 508.702, 263.646 515.793, 266.905 516.657 C 270.233 517.539, 271.731 516.330, 275.167 509.987 C 277.894 504.954, 278.099 503.895, 277.642 497.185 C 277.185 490.459, 275.101 484.776, 273.227 485.142 C 272.827 485.220, 270.349 487.582, 267.720 490.392 M 374.938 489.250 C 369.047 499.551, 366.067 508.627, 365.384 518.340 C 364.571 529.900, 364.774 530.093, 376.500 528.908 C 385.960 527.952, 400.751 524.649, 402.239 523.161 C 403.999 521.401, 401.212 516.399, 392.163 505.073 C 387.516 499.258, 382.790 492.363, 381.659 489.750 C 380.528 487.137, 379.100 485, 378.486 485 C 377.871 485, 376.275 486.913, 374.938 489.250 M 449.667 488.667 C 449.300 489.033, 449 490.987, 449 493.008 C 449 495.029, 448.338 498.882, 447.529 501.570 C 446.720 504.258, 446.382 506.781, 446.779 507.177 C 447.176 507.572, 449.750 506.682, 452.500 505.198 C 457.172 502.677, 457.520 502.220, 457.808 498.231 C 458.070 494.609, 457.665 493.511, 455.135 490.981 C 452.126 487.973, 450.886 487.447, 449.667 488.667 M 355.294 519.750 C 354.940 520.712, 354.054 521.860, 353.325 522.300 C 352.596 522.740, 351.283 524.487, 350.406 526.182 C 349.086 528.734, 349.043 529.421, 350.156 530.168 C 351.891 531.332, 359.201 530.269, 360.231 528.703 C 360.968 527.581, 360.317 520.426, 359.326 518.750 C 358.500 517.354, 355.941 517.989, 355.294 519.750" stroke="none" fill="#121414" fill-rule="evenodd"/></svg>